<svg width="50" height="50" viewBox="0 0 50 50" fill="none" xmlns="http://www.w3.org/2000/svg">
<path d="M42.1107 36.7029L39.1611 39.6525L37.3945 37.8778C37.0679 37.5511 36.5381 37.5511 36.2115 37.8778C35.8848 38.2045 35.8848 38.7342 36.2115 39.0609L38.5695 41.419C38.7257 41.5768 38.9389 41.6655 39.1611 41.6655C39.3832 41.6655 39.596 41.5768 39.7526 41.419L43.3271 37.8778C43.5647 37.6744 43.6684 37.3546 43.5952 37.0503C43.522 36.7456 43.2844 36.508 42.9801 36.4347C42.6758 36.3615 42.356 36.4653 42.1521 36.7029H42.1107Z" fill="#FFBB01"/>
<path d="M43.3271 30.9123V28.3292C43.3271 27.8691 42.954 27.496 42.4939 27.496H39.9943V26.6628C39.9943 25.2824 41.1135 24.1632 42.4939 24.1632C42.954 24.1632 43.3271 23.7901 43.3271 23.33C43.3271 22.8698 42.954 22.4968 42.4939 22.4968C40.1932 22.4968 38.3278 24.3621 38.3278 26.6628V27.496H35.8282C35.3681 27.496 34.995 27.8691 34.995 28.3292V30.9123C30.7219 32.8708 28.3903 37.5414 29.3924 42.1334C30.3948 46.7258 34.4604 50.0001 39.161 50.0001C43.8613 50.0001 47.9273 46.7258 48.9297 42.1334C49.9318 37.5414 47.6002 32.8708 43.3271 30.9123ZM39.9943 48.3263V47.4931C39.9943 47.033 39.6212 46.6599 39.161 46.6599C38.7009 46.6599 38.3278 47.033 38.3278 47.4931V48.3263C34.3546 47.9455 31.2097 44.8006 30.8289 40.8274H31.6621C32.1223 40.8274 32.4953 40.4543 32.4953 39.9942C32.4953 39.5341 32.1223 39.161 31.6621 39.161H30.8289C31.143 36.0491 33.1731 33.3753 36.0865 32.237C36.4071 32.1133 36.6187 31.8057 36.6199 31.4619V29.1625H41.6192V31.4619C41.62 31.8057 41.8316 32.1133 42.1522 32.237C45.0981 33.3505 47.1644 36.0291 47.4932 39.161H46.66C46.1998 39.161 45.8267 39.5341 45.8267 39.9942C45.8267 40.4543 46.1998 40.8274 46.66 40.8274H47.4932C47.1124 44.8006 43.9675 47.9455 39.9943 48.3263Z" fill="#FFBB01"/>
<path d="M27.0334 43.3333C26.8571 43.3333 4.19643 43.3333 4.19643 43.3333C2.80595 43.3333 1.67857 42.2139 1.67857 40.8333V14.1667H45.3214V29.55C45.3214 30.0102 45.6972 30.3833 46.1607 30.3833C46.6242 30.3833 47 30.0102 47 29.55V8.33333C47 6.03231 45.121 4.16667 42.8036 4.16667H41.125V3.33333C41.125 2.87313 40.7492 2.5 40.2857 2.5C39.8222 2.5 39.4464 2.87313 39.4464 3.33333V6.66667C39.4464 7.58708 38.6948 8.33333 37.7679 8.33333C36.8409 8.33333 36.0893 7.58708 36.0893 6.66667V3.33333C36.0893 2.41292 36.8409 1.66667 37.7679 1.66667C38.2314 1.66667 38.6071 1.29354 38.6071 0.833333C38.6071 0.373128 38.2314 0 37.7679 0C35.9139 0 34.4107 1.49251 34.4107 3.33333V4.16667H26.8571V3.33333C26.8571 2.87313 26.4813 2.5 26.0179 2.5C25.5544 2.5 25.1786 2.87313 25.1786 3.33333V6.66667C25.1786 7.58708 24.427 8.33333 23.5 8.33333C22.573 8.33333 21.8214 7.58708 21.8214 6.66667V3.33333C21.8214 2.41292 22.573 1.66667 23.5 1.66667C23.9635 1.66667 24.3393 1.29354 24.3393 0.833333C24.3393 0.373128 23.9635 0 23.5 0C21.646 0 20.1429 1.49251 20.1429 3.33333V4.16667H12.5893V3.33333C12.5893 2.87313 12.2135 2.5 11.75 2.5C11.2865 2.5 10.9107 2.87313 10.9107 3.33333V6.66667C10.9107 7.58708 10.1591 8.33333 9.23214 8.33333C8.30516 8.33333 7.55357 7.58708 7.55357 6.66667V3.33333C7.55357 2.41292 8.30516 1.66667 9.23214 1.66667C9.69564 1.66667 10.0714 1.29354 10.0714 0.833333C10.0714 0.373128 9.69564 0 9.23214 0C7.37817 0 5.875 1.49251 5.875 3.33333V4.16667H4.19643C1.87897 4.16667 0 6.03231 0 8.33333V40.8333C0 43.1344 1.87897 45 4.19643 45H23.5C27.9063 45 27.9063 45 27.9063 44.1667C27.9075 43.9453 27.8198 43.7321 27.6628 43.575C27.4964 43.4106 27.2682 43.3228 27.0334 43.3333ZM4.19643 5.83333H5.875V6.66667C5.875 8.50749 7.37817 10 9.23214 10C11.0861 10 12.5893 8.50749 12.5893 6.66667V5.83333H20.1429V6.66667C20.1429 8.50749 21.646 10 23.5 10C25.354 10 26.8571 8.50749 26.8571 6.66667V5.83333H34.4107V6.66667C34.4107 8.50749 35.9139 10 37.7679 10C39.6218 10 41.125 8.50749 41.125 6.66667V5.83333H42.8036C44.194 5.83333 45.3214 6.95272 45.3214 8.33333V12.5H1.67857V8.33333C1.67857 6.95272 2.80595 5.83333 4.19643 5.83333Z" fill="#FFBB01"/>
<path d="M15 17.8C15 17.3582 14.6418 17 14.2 17H7.8C7.3582 17 7 17.3582 7 17.8V24.2C7 24.6418 7.3582 25 7.8 25H14.2C14.6418 25 15 24.6418 15 24.2V17.8ZM13.4 23.4H8.6V18.6H13.4V23.4Z" fill="#FFBB01"/>
<path d="M14.1647 29.9956C14.6248 29.9956 14.9979 29.6226 14.9979 29.1624C14.9979 28.7023 14.6248 28.3292 14.1647 28.3292H7.49898C7.03885 28.3292 6.66577 28.7023 6.66577 29.1624V35.8281C6.66577 36.2883 7.03885 36.6613 7.49898 36.6613H14.1647C14.6248 36.6613 14.9979 36.2883 14.9979 35.8281V32.4953C14.9979 32.0351 14.6248 31.6621 14.1647 31.6621C13.7045 31.6621 13.3315 32.0351 13.3315 32.4953V34.9949H8.3322V29.9956H14.1647Z" fill="#FFBB01"/>
<path d="M19.164 28.3292C18.7039 28.3292 18.3308 28.7023 18.3308 29.1624V35.8281C18.3308 36.2883 18.7039 36.6613 19.164 36.6613H25.8297C26.2898 36.6613 26.6629 36.2883 26.6629 35.8281V29.1624C26.6629 28.7023 26.2898 28.3292 25.8297 28.3292H19.164ZM24.9965 34.9949H19.9972V29.9956H24.9965V34.9949Z" fill="#FFBB01"/>
<path d="M37.2 23.4C37.6418 23.4 38 23.0418 38 22.6V17.8C38 17.3582 37.6418 17 37.2 17H30.8C30.3582 17 30 17.3582 30 17.8V24.2C30 24.6418 30.3582 25 30.8 25C31.2418 25 31.6 24.6418 31.6 24.2V18.6H36.4V22.6C36.4 23.0418 36.7582 23.4 37.2 23.4Z" fill="#FFBB01"/>
<path d="M26.734 17.2364C26.565 17.0851 26.3354 17 26.0958 17C25.8561 17 25.6261 17.0851 25.4576 17.2364L22.5 19.8732L19.5424 17.2364C19.19 16.9231 18.6185 16.9231 18.266 17.2364C17.9135 17.5497 17.9135 18.0577 18.266 18.371L21.2323 21L18.266 23.629C18.0957 23.7788 18 23.9832 18 24.1963C18 24.4093 18.0957 24.6137 18.266 24.7636C18.4345 24.9149 18.6646 25 18.9042 25C19.1439 25 19.3734 24.9149 19.5424 24.7636L22.5 22.1268L25.4576 24.7636C25.6261 24.9149 25.8561 25 26.0958 25C26.3354 25 26.565 24.9149 26.734 24.7636C26.9043 24.6137 27 24.4093 27 24.1963C27 23.9832 26.9043 23.7788 26.734 23.629L23.7677 21L26.734 18.371C26.9043 18.2212 27 18.0168 27 17.8037C27 17.5907 26.9043 17.3863 26.734 17.2364V17.2364Z" fill="#FFBB01"/>
</svg>
