<svg width="50" height="50" viewBox="0 0 50 50" fill="none" xmlns="http://www.w3.org/2000/svg">
<path d="M49.908 11.8336C49.7359 11.2 49.316 10.6598 48.7415 10.3324C48.1665 10.0033 47.483 9.91425 46.8417 10.0846C46.2012 10.2554 45.6556 10.6707 45.3248 11.2395L44.9081 11.9573C44.5122 11.7321 44.0065 11.8646 43.7749 12.2546L41.6583 15.8262L40.9332 15.4138C40.7411 15.3038 40.5125 15.274 40.2984 15.3312C40.084 15.3888 39.9017 15.5282 39.7915 15.7191C39.5656 16.1134 39.7032 16.6145 40.0999 16.8409L40.825 17.2534L33.7418 29.4049L31.9917 34.0331L31.1584 35.5755C30.6705 36.4157 30.7226 37.4602 31.2918 38.2485L29.4169 40.5251L28.892 39.2221C28.6552 38.6412 28.1071 38.2432 27.4768 38.1945C26.8461 38.1454 26.2419 38.4539 25.9168 38.9909L25.6169 39.494L25.3337 36.1942C25.2686 35.4135 24.6579 34.786 23.8725 34.6917C23.0868 34.5978 22.343 35.0639 22.092 35.8067L20.0421 41.8947C19.8988 42.3253 20.1332 42.7893 20.5669 42.9343C20.6483 42.9718 20.7358 42.9944 20.8253 43C21.1834 43.0012 21.5024 42.7752 21.6171 42.4393L23.6585 36.3513L23.9503 39.7002C24.0105 40.4148 24.5293 41.0089 25.2348 41.1708C25.9404 41.3328 26.6703 41.025 27.0418 40.4099L27.3503 39.9064L27.867 41.2019C28.0863 41.7477 28.5823 42.1372 29.1695 42.2238C29.7566 42.3104 30.3458 42.0812 30.7169 41.6224L32.6586 39.189C32.8734 39.2446 33.0948 39.2724 33.317 39.2716C34.2101 39.2785 35.0393 38.8128 35.4918 38.0503L36.3251 36.6727L39.5001 32.8533L46.6582 20.5532L47.3833 20.9657C47.5765 21.0752 47.7173 21.2561 47.7747 21.4692C47.8325 21.6806 47.8024 21.9062 47.6917 22.0959L44.3584 27.813C44.2327 28.0007 44.19 28.2311 44.2404 28.451C44.2909 28.6705 44.4296 28.8603 44.6249 28.9759C44.817 29.0862 45.0457 29.116 45.2597 29.0589C45.4741 29.0012 45.6564 28.8619 45.7667 28.6709L49.1 22.9539C49.4324 22.3847 49.5223 21.708 49.3498 21.0732C49.1773 20.4392 48.7578 19.899 48.1832 19.5715L47.4581 19.1591L49.5414 15.587C49.7689 15.195 49.635 14.6948 49.2416 14.4652L49.6582 13.7474C49.9996 13.1693 50.0899 12.4789 49.908 11.8336V11.8336ZM46.7664 12.0644C46.8767 11.8735 47.0598 11.7337 47.275 11.6769C47.4891 11.6246 47.7153 11.654 47.9082 11.7595C48.1014 11.8687 48.2422 12.0499 48.3 12.2626C48.3529 12.4745 48.3232 12.6984 48.2166 12.8894L47.7999 13.6072L46.3498 12.7822L46.7664 12.0644ZM35.4084 35.0973L34.9917 34.8581L33.7584 34.1483L34.9417 31.0137L37.5666 32.5149L35.4084 35.0973ZM32.9084 37.4811C32.5565 37.2382 32.4482 36.771 32.6586 36.4004L33.0753 35.683L34.525 36.508L34.1084 37.2173C33.9916 37.4179 33.7955 37.5605 33.5672 37.6108C33.3389 37.6608 33.1001 37.6141 32.9084 37.4811ZM38.5167 31.1623L35.6334 29.5124L42.3 18.0783L45.1832 19.7282L38.5167 31.1623ZM46.0165 18.3011L43.1333 16.6512L44.7999 13.7969L47.6832 15.4468L46.0165 18.3011Z" fill="#FFBB01"/>
<path d="M13.1476 37.3436L10.1985 40.285L8.43203 38.5186C8.10697 38.1955 7.58216 38.1955 7.2571 38.5186C7.09925 38.6752 7.01056 38.888 7.01056 39.1101C7.01056 39.3322 7.09925 39.5454 7.2571 39.7016L9.02356 41.4681C9.33601 41.7781 9.7583 41.9518 10.1985 41.9514C10.6411 41.9538 11.0671 41.7801 11.3816 41.4681L14.3225 38.5186C14.6057 38.1878 14.5866 37.6951 14.279 37.3876C13.971 37.0796 13.4784 37.0605 13.1476 37.3436Z" fill="#FFBB01"/>
<path d="M3.33282 39.585C3.33282 43.4966 6.50367 46.6671 10.415 46.6671C14.3262 46.6671 17.4971 43.4966 17.4971 39.585C17.4971 39.1248 17.124 38.7518 16.6639 38.7518C16.2038 38.7518 15.8307 39.1248 15.8307 39.585C15.8307 42.576 13.406 45.0007 10.415 45.0007C7.42392 45.0007 4.99921 42.576 4.99921 39.585C4.99921 36.5939 7.42392 34.1692 10.415 34.1692C11.5874 34.166 12.7286 34.5463 13.6643 35.2526C14.0325 35.5288 14.5549 35.454 14.8307 35.0858C15.1069 34.7176 15.0325 34.1957 14.6643 33.9194C12.5183 32.31 9.64685 32.0512 7.24777 33.2506C4.84827 34.4503 3.33282 36.9027 3.33282 39.585Z" fill="#FFBB01"/>
<path d="M30.1429 6.66667C30.6162 6.66667 31 6.29395 31 5.83333C31 5.37313 30.6162 5 30.1429 5H7.85714C7.38379 5 7 5.37313 7 5.83333V9.16667C7 9.62728 7.38379 10 7.85714 10H30.1429C30.6162 10 31 9.62728 31 9.16667C31 8.70646 30.6162 8.33333 30.1429 8.33333H8.71429V6.66667H30.1429Z" fill="#FFBB01"/>
<path d="M10.8182 12C10.3663 12 10 12.2239 10 12.5C10 12.7764 10.3663 13 10.8182 13H27.1818C27.6337 13 28 12.7764 28 12.5C28 12.2239 27.6337 12 27.1818 12H10.8182Z" fill="#FFBB01"/>
<path d="M32.1667 18H13.8333C13.3731 18 13 18.2239 13 18.5C13 18.7764 13.3731 19 13.8333 19H32.1667C32.6269 19 33 18.7764 33 18.5C33 18.2239 32.6269 18 32.1667 18Z" fill="#FFBB01"/>
<path d="M24.1625 23.3377C24.1625 22.8776 23.7895 22.5045 23.3294 22.5045H6.66553C6.2054 22.5045 5.83234 22.8776 5.83234 23.3377C5.83234 23.7982 6.2054 24.1709 6.66553 24.1709H23.3294C23.7895 24.1709 24.1625 23.7982 24.1625 23.3377Z" fill="#FFBB01"/>
<path d="M32.4944 22.5045H26.6621C26.202 22.5045 25.8289 22.8776 25.8289 23.3377C25.8289 23.7982 26.202 24.1709 26.6621 24.1709H32.4944C32.9546 24.1709 33.3276 23.7982 33.3276 23.3377C33.3276 22.8776 32.9546 22.5045 32.4944 22.5045Z" fill="#FFBB01"/>
<path d="M14.9974 28.3368C15.4576 28.3368 15.8306 27.9642 15.8306 27.5037C15.8306 27.0435 15.4576 26.6705 14.9974 26.6705H6.66553C6.2054 26.6705 5.83234 27.0435 5.83234 27.5037C5.83234 27.9642 6.2054 28.3368 6.66553 28.3368H14.9974Z" fill="#FFBB01"/>
<path d="M18.3301 28.3368H24.1625C24.6226 28.3368 24.9957 27.9642 24.9957 27.5037C24.9957 27.0435 24.6226 26.6705 24.1625 26.6705H18.3301C17.87 26.6705 17.4969 27.0435 17.4969 27.5037C17.4969 27.9642 17.87 28.3368 18.3301 28.3368Z" fill="#FFBB01"/>
<path d="M37.1739 38.3333C36.7177 38.3333 36.3478 38.7065 36.3478 39.1667V47.5C36.3478 47.9606 35.9779 48.3333 35.5217 48.3333H2.47826C2.02206 48.3333 1.65217 47.9606 1.65217 47.5V2.5C1.65217 2.03979 2.02206 1.66667 2.47826 1.66667H35.5217C35.9779 1.66667 36.3478 2.03979 36.3478 2.5V18.1502C36.3478 18.6104 36.7177 18.9836 37.1739 18.9836C37.6301 18.9836 38 18.6104 38 18.1502V2.5C38 1.11938 36.8903 0 35.5217 0H2.47826C1.10965 0 0 1.11938 0 2.5V47.5C0 48.881 1.10965 50 2.47826 50H35.5217C36.8903 50 38 48.881 38 47.5V39.1667C38 38.7065 37.6301 38.3333 37.1739 38.3333Z" fill="#FFBB01"/>
</svg>
